<?xml version="1.0" encoding="iso-8859-1"?>
<!-- Generator: Adobe Illustrator 19.0.0, SVG Export Plug-In . SVG Version: 6.00 Build 0)  -->
<svg version="1.1" id="Capa_1" xmlns="http://www.w3.org/2000/svg" xmlns:xlink="http://www.w3.org/1999/xlink" x="0px" y="0px"
	 viewBox="0 0 428.487 428.487" style="enable-background:new 0 0 428.487 428.487;" xml:space="preserve">
<g>
	<g>
		<path d="M423.367,209.127h-62.64c-2.8-76.881-64.479-138.56-141.36-141.36V5.127c0-2.828-2.292-5.12-5.12-5.12
			s-5.12,2.292-5.12,5.12v62.64c-76.881,2.8-138.56,64.479-141.36,141.36H5.127c-2.828-0.004-5.123,2.285-5.127,5.113
			c-0.004,2.828,2.285,5.123,5.113,5.127c0.005,0,0.009,0,0.014,0h62.64c2.8,76.881,64.479,138.56,141.36,141.36v62.64
			c0.004,2.828,2.299,5.117,5.127,5.113c2.822-0.004,5.109-2.291,5.113-5.113v-62.64c76.881-2.8,138.56-64.479,141.36-141.36h62.64
			c2.828,0,5.12-2.292,5.12-5.12S426.195,209.127,423.367,209.127z M209.127,78.247v48c-44.682,2.532-80.348,38.198-82.88,82.88h-48
			C81.146,138.079,138.079,81.146,209.127,78.247z M209.127,350.247c-71.048-2.898-127.982-59.832-130.88-130.88h48
			c2.532,44.682,38.198,80.348,82.88,82.88V350.247z M214.327,249.127c-2.828,0-5.12,2.292-5.12,5.12v37.68
			c-38.903-2.598-69.882-33.577-72.48-72.48h37.52c2.828,0,5.12-2.292,5.12-5.12s-2.292-5.12-5.12-5.12h-37.52
			c2.598-38.903,33.577-69.882,72.48-72.48v37.52c0.004,2.828,2.299,5.117,5.127,5.113c2.822-0.004,5.109-2.291,5.113-5.113v-37.52
			c38.903,2.598,69.882,33.577,72.48,72.48h-37.68c-2.828-0.004-5.123,2.285-5.127,5.113c-0.004,2.828,2.285,5.123,5.113,5.127
			c0.005,0,0.009,0,0.014,0v-0.08h37.68c-2.598,38.903-33.577,69.882-72.48,72.48v-37.6
			C219.447,251.419,217.155,249.127,214.327,249.127z M219.367,350.247v-48c44.682-2.532,80.348-38.198,82.88-82.88h48
			C347.349,290.415,290.415,347.349,219.367,350.247z M302.247,209.127c-2.532-44.682-38.198-80.348-82.88-82.88v-48
			c71.048,2.898,127.982,59.832,130.88,130.88H302.247z"/>
	</g>
</g>
<g>
</g>
<g>
</g>
<g>
</g>
<g>
</g>
<g>
</g>
<g>
</g>
<g>
</g>
<g>
</g>
<g>
</g>
<g>
</g>
<g>
</g>
<g>
</g>
<g>
</g>
<g>
</g>
<g>
</g>
</svg>
